<?xml version="1.0" encoding="UTF-8" standalone="no"?>
<!-- Created with Inkscape (http://www.inkscape.org/) -->

<svg
   xmlns:dc="http://purl.org/dc/elements/1.1/"
   xmlns:cc="http://creativecommons.org/ns#"
   xmlns:rdf="http://www.w3.org/1999/02/22-rdf-syntax-ns#"
   xmlns:svg="http://www.w3.org/2000/svg"
   xmlns="http://www.w3.org/2000/svg"
   xmlns:sodipodi="http://sodipodi.sourceforge.net/DTD/sodipodi-0.dtd"
   xmlns:inkscape="http://www.inkscape.org/namespaces/inkscape"
   width="53.691223mm"
   height="97.120514mm"
   viewBox="0 0 190.24449 344.1278"
   id="svg2"
   version="1.1"
   inkscape:version="0.91 r"
   sodipodi:docname="CF-DSG-orthogonal-multidim.svg">
  <defs
     id="defs4">
    <inkscape:path-effect
       effect="construct_grid"
       id="path-effect6948"
       is_visible="true"
       nr_x="4"
       nr_y="6" />
    <inkscape:perspective
       sodipodi:type="inkscape:persp3d"
       inkscape:vp_x="352.14285 : 458.32393 : 1"
       inkscape:vp_y="0 : 999.99996 : 0"
       inkscape:vp_z="1004.0945 : 858.32392 : 1"
       inkscape:persp3d-origin="372.04723 : 350.78738 : 1"
       id="perspective4471" />
  </defs>
  <sodipodi:namedview
     id="base"
     pagecolor="#000000"
     bordercolor="#666666"
     borderopacity="1.0"
     inkscape:pageopacity="0"
     inkscape:pageshadow="2"
     inkscape:zoom="2.8"
     inkscape:cx="201.00959"
     inkscape:cy="79.711397"
     inkscape:document-units="px"
     inkscape:current-layer="layer1"
     showgrid="false"
     inkscape:window-width="3202"
     inkscape:window-height="1768"
     inkscape:window-x="0"
     inkscape:window-y="32"
     inkscape:window-maximized="0"
     fit-margin-top="0"
     fit-margin-left="0"
     fit-margin-right="0"
     fit-margin-bottom="0" />
  <metadata
     id="metadata7">
    <rdf:RDF>
      <cc:Work
         rdf:about="">
        <dc:format>image/svg+xml</dc:format>
        <dc:type
           rdf:resource="http://purl.org/dc/dcmitype/StillImage" />
        <dc:title></dc:title>
      </cc:Work>
    </rdf:RDF>
  </metadata>
  <g
     inkscape:label="Layer 1"
     inkscape:groupmode="layer"
     id="layer1"
     transform="translate(-174.78443,-20.633407)">
    <path
       style="opacity:1;fill:#006699;fill-opacity:1;fill-rule:evenodd;stroke:none;stroke-width:0.71428573;stroke-miterlimit:4;stroke-dasharray:none;stroke-dashoffset:0;stroke-opacity:1"
       d="m 174.78443,292.32312 0,-22.72568 22.0155,0 22.01548,0 0,22.72568 0,22.72567 -22.01548,0 -22.0155,0 0,-22.72567 z"
       id="path6971"
       inkscape:connector-curvature="0" />
    <path
       style="opacity:1;fill:#669900;fill-opacity:1;fill-rule:evenodd;stroke:none;stroke-width:0.71428573;stroke-miterlimit:4;stroke-dasharray:none;stroke-dashoffset:0;stroke-opacity:1"
       d="m 223.07648,292.32244 0,-22.72567 22.01551,0 22.0155,0 0,22.72567 0,22.72568 -22.0155,0 -22.01551,0 0,-22.72568 z"
       id="path6973"
       inkscape:connector-curvature="0" />
    <path
       style="opacity:1;fill:#669900;fill-opacity:1;fill-rule:evenodd;stroke:none;stroke-width:0.71428573;stroke-miterlimit:4;stroke-dasharray:none;stroke-dashoffset:0;stroke-opacity:1"
       d="m 223.07648,242.61069 0,-22.72567 22.01551,0 22.0155,0 0,22.72567 0,22.72568 -22.0155,0 -22.01551,0 0,-22.72568 z"
       id="path6975"
       inkscape:connector-curvature="0" />
    <path
       style="opacity:1;fill:#669900;fill-opacity:1;fill-rule:evenodd;stroke:none;stroke-width:0.71428573;stroke-miterlimit:4;stroke-dasharray:none;stroke-dashoffset:0;stroke-opacity:1"
       d="m 223.07648,192.89827 0,-22.72568 22.01551,0 22.0155,0 0,22.72568 0,22.72568 -22.0155,0 -22.01551,0 0,-22.72568 z"
       id="path6977"
       inkscape:connector-curvature="0" />
    <path
       style="opacity:1;fill:#006699;fill-opacity:1;fill-rule:evenodd;stroke:none;stroke-width:0.71428573;stroke-miterlimit:4;stroke-dasharray:none;stroke-dashoffset:0;stroke-opacity:1"
       d="m 174.78443,192.89827 0,-22.72568 22.0155,0 22.01548,0 0,22.72568 0,22.72568 -22.01548,0 -22.0155,0 0,-22.72568 z"
       id="path6979"
       inkscape:connector-curvature="0" />
    <path
       style="opacity:1;fill:#006699;fill-opacity:1;fill-rule:evenodd;stroke:none;stroke-width:0.71428573;stroke-miterlimit:4;stroke-dasharray:none;stroke-dashoffset:0;stroke-opacity:1"
       d="m 174.78443,242.61069 0,-22.72567 22.0155,0 22.01548,0 0,22.72567 0,22.72568 -22.01548,0 -22.0155,0 0,-22.72568 z"
       id="path6981"
       inkscape:connector-curvature="0" />
    <path
       style="opacity:1;fill:#996600;fill-opacity:1;fill-rule:evenodd;stroke:none;stroke-width:0.71428573;stroke-miterlimit:4;stroke-dasharray:none;stroke-dashoffset:0;stroke-opacity:1"
       d="m 271.36856,242.61069 0,-22.72567 22.01549,0 22.0155,0 0,22.72567 0,22.72568 -22.0155,0 -22.01549,0 0,-22.72568 z"
       id="path6983"
       inkscape:connector-curvature="0" />
    <path
       style="opacity:1;fill:#996600;fill-opacity:1;fill-rule:evenodd;stroke:none;stroke-width:0.71428573;stroke-miterlimit:4;stroke-dasharray:none;stroke-dashoffset:0;stroke-opacity:1"
       d="m 271.36856,192.89827 0,-22.72568 22.01549,0 22.0155,0 0,22.72568 0,22.72568 -22.0155,0 -22.01549,0 0,-22.72568 z"
       id="path6985"
       inkscape:connector-curvature="0" />
    <path
       style="opacity:1;fill:#660099;fill-opacity:1;fill-rule:evenodd;stroke:none;stroke-width:0.71428573;stroke-miterlimit:4;stroke-dasharray:none;stroke-dashoffset:0;stroke-opacity:1"
       d="m 319.66062,192.89827 0,-22.72568 22.01551,0 22.0155,0 0,22.72568 0,22.72568 -22.0155,0 -22.01551,0 0,-22.72568 z"
       id="path6987"
       inkscape:connector-curvature="0" />
    <path
       style="opacity:1;fill:#660099;fill-opacity:1;fill-rule:evenodd;stroke:none;stroke-width:0.71428573;stroke-miterlimit:4;stroke-dasharray:none;stroke-dashoffset:0;stroke-opacity:1"
       d="m 319.66062,242.61069 0,-22.72567 22.01551,0 22.0155,0 0,22.72567 0,22.72568 -22.0155,0 -22.01551,0 0,-22.72568 z"
       id="path6989"
       inkscape:connector-curvature="0" />
    <path
       style="opacity:1;fill:#660099;fill-opacity:1;fill-rule:evenodd;stroke:none;stroke-width:0.71428573;stroke-miterlimit:4;stroke-dasharray:none;stroke-dashoffset:0;stroke-opacity:1"
       d="m 319.66062,292.32312 0,-22.72568 22.01551,0 22.0155,0 0,22.72568 0,22.72567 -22.0155,0 -22.01551,0 0,-22.72567 z"
       id="path6991"
       inkscape:connector-curvature="0" />
    <path
       style="opacity:1;fill:#660099;fill-opacity:1;fill-rule:evenodd;stroke:none;stroke-width:0.71428573;stroke-miterlimit:4;stroke-dasharray:none;stroke-dashoffset:0;stroke-opacity:1"
       d="m 319.66062,342.03554 0,-22.72568 22.01551,0 22.0155,0 0,22.72568 0,22.72568 -22.0155,0 -22.01551,0 0,-22.72568 z"
       id="path6993"
       inkscape:connector-curvature="0" />
    <path
       style="opacity:1;fill:#996600;fill-opacity:1;fill-rule:evenodd;stroke:none;stroke-width:0.71428573;stroke-miterlimit:4;stroke-dasharray:none;stroke-dashoffset:0;stroke-opacity:1"
       d="m 271.36856,292.32312 0,-22.72568 22.01549,0 22.0155,0 0,22.72568 0,22.72567 -22.0155,0 -22.01549,0 0,-22.72567 z"
       id="path6997"
       inkscape:connector-curvature="0" />
    <path
       style="opacity:1;fill:#996600;fill-opacity:1;fill-rule:evenodd;stroke:none;stroke-width:0.71428573;stroke-miterlimit:4;stroke-dasharray:none;stroke-dashoffset:0;stroke-opacity:1"
       d="m 271.36856,342.03554 0,-22.72568 22.01549,0 22.0155,0 0,22.72568 0,22.72568 -22.0155,0 -22.01549,0 0,-22.72568 z"
       id="path6999"
       inkscape:connector-curvature="0" />
    <path
       style="opacity:1;fill:none;fill-opacity:1;fill-rule:evenodd;stroke:none;stroke-width:0.71428573;stroke-miterlimit:4;stroke-dasharray:none;stroke-dashoffset:0;stroke-opacity:1"
       d="m 175.4946,292.32312 0,-22.01551 21.30533,0 21.30531,0 0,22.01551 0,22.0155 -21.30531,0 -21.30533,0 0,-22.0155 z"
       id="path7001"
       inkscape:connector-curvature="0" />
    <path
       style="opacity:1;fill:#006699;fill-opacity:1;fill-rule:evenodd;stroke:none;stroke-width:0.71428573;stroke-miterlimit:4;stroke-dasharray:none;stroke-dashoffset:0;stroke-opacity:1"
       d="m 174.78443,342.03554 0,-22.72568 22.0155,0 22.01548,0 0,22.72568 0,22.72568 -22.01548,0 -22.0155,0 0,-22.72568 z"
       id="path7003"
       inkscape:connector-curvature="0" />
    <text
       xml:space="preserve"
       style="font-style:normal;font-weight:normal;font-size:40px;line-height:125%;font-family:Sans;letter-spacing:0px;word-spacing:0px;fill:#000000;fill-opacity:1;stroke:none;stroke-width:1px;stroke-linecap:butt;stroke-linejoin:miter;stroke-opacity:1"
       x="71.428574"
       y="187.71935"
       id="text7024"
       sodipodi:linespacing="125%"><tspan
         sodipodi:role="line"
         id="tspan7026"
         x="71.428574"
         y="187.71935"
         style="fill:#fffdfd;fill-opacity:1" /></text>
    <text
       xml:space="preserve"
       style="font-style:normal;font-weight:normal;font-size:79.53987885px;line-height:125%;font-family:Sans;letter-spacing:0px;word-spacing:0px;fill:#fffbfb;fill-opacity:1;stroke:none;stroke-width:1px;stroke-linecap:butt;stroke-linejoin:miter;stroke-opacity:1"
       x="166.95598"
       y="160.42519"
       id="text7036"
       sodipodi:linespacing="125%"><tspan
         sodipodi:role="line"
         id="tspan7038"
         x="166.95598"
         y="160.42519">1234</tspan></text>
    <text
       xml:space="preserve"
       style="font-style:normal;font-weight:normal;font-size:79.53987885px;line-height:125%;font-family:Sans;letter-spacing:0px;word-spacing:0px;fill:#ffffff;fill-opacity:1;stroke:none;stroke-width:1px;stroke-linecap:butt;stroke-linejoin:miter;stroke-opacity:1"
       x="230.7299"
       y="76.482208"
       id="text7131"
       sodipodi:linespacing="125%"><tspan
         sodipodi:role="line"
         id="tspan7133"
         x="230.7299"
         y="76.482208">ts</tspan></text>
    <path
       style="opacity:1;fill:#669900;fill-opacity:1;fill-rule:evenodd;stroke:none;stroke-width:0.71428573;stroke-miterlimit:4;stroke-dasharray:none;stroke-dashoffset:0;stroke-opacity:1"
       d="m 223.07704,342.03486 0,-22.72567 22.01551,0 22.0155,0 0,22.72567 0,22.72568 -22.0155,0 -22.01551,0 0,-22.72568 z"
       id="path6977-9"
       inkscape:connector-curvature="0" />
  </g>
</svg>
