<?xml version="1.0" encoding="UTF-8" standalone="no"?>
<!DOCTYPE svg PUBLIC "-//W3C//DTD SVG 1.1//EN"
 "http://www.w3.org/Graphics/SVG/1.1/DTD/svg11.dtd">
<!-- Generated by graphviz version 2.36.0 (20140111.2315)
 -->
<!-- Title: structs Pages: 1 -->
<svg width="221pt" height="179pt"
 viewBox="0.00 0.00 220.83 179.17" xmlns="http://www.w3.org/2000/svg" xmlns:xlink="http://www.w3.org/1999/xlink">
<g id="graph0" class="graph" transform="scale(2.08333 2.08333) rotate(0) translate(4 82)">
<title>structs</title>
<polygon fill="none" stroke="none" points="-4,4 -4,-82 102,-82 102,4 -4,4"/>
<!-- data -->
<g id="node1" class="node"><title>data</title>
<path fill="White" stroke="Black" d="M11.5,-1C11.5,-1 86.5,-1 86.5,-1 92.5,-1 98.5,-7 98.5,-13 98.5,-13 98.5,-65 98.5,-65 98.5,-71 92.5,-77 86.5,-77 86.5,-77 11.5,-77 11.5,-77 5.5,-77 -0.5,-71 -0.5,-65 -0.5,-65 -0.5,-13 -0.5,-13 -0.5,-7 5.5,-1 11.5,-1"/>
<text text-anchor="middle" x="49" y="-61.8" font-family="Hack" font-size="14.00">DatasetTs</text>
<polyline fill="none" stroke="Black" points="-0.5,-54 98.5,-54 "/>
<text text-anchor="middle" x="49" y="-38.8" font-family="Hack" font-size="14.00">.grid</text>
<text text-anchor="middle" x="49" y="-23.8" font-family="Hack" font-size="14.00">.read_ts()</text>
<text text-anchor="middle" x="49" y="-8.8" font-family="Hack" font-size="14.00">.iter_ts()</text>
</g>
</g>
</svg>
