<?xml version="1.0" encoding="UTF-8" standalone="no"?>
<!DOCTYPE svg PUBLIC "-//W3C//DTD SVG 1.1//EN"
 "http://www.w3.org/Graphics/SVG/1.1/DTD/svg11.dtd">
<!-- Generated by graphviz version 2.36.0 (20140111.2315)
 -->
<!-- Title: G Pages: 1 -->
<svg width="628pt" height="175pt"
 viewBox="0.00 0.00 627.78 175.00" xmlns="http://www.w3.org/2000/svg" xmlns:xlink="http://www.w3.org/1999/xlink">
<g id="graph0" class="graph" transform="scale(1.38889 1.38889) rotate(0) translate(4 122)">
<title>G</title>
<polygon fill="none" stroke="none" points="-4,4 -4,-122 448,-122 448,4 -4,4"/>
<!-- data -->
<g id="node1" class="node"><title>data</title>
<path fill="White" stroke="White" d="M12,-55C12,-55 62,-55 62,-55 68,-55 74,-61 74,-67 74,-67 74,-79 74,-79 74,-85 68,-91 62,-91 62,-91 12,-91 12,-91 6,-91 0,-85 0,-79 0,-79 0,-67 0,-67 0,-61 6,-55 12,-55"/>
<text text-anchor="middle" x="37" y="-69.3" font-family="Hack" font-size="14.00">RS data</text>
</g>
<!-- resamp -->
<g id="node2" class="node"><title>resamp</title>
<polygon fill="White" stroke="White" points="217.5,-118 118.5,-118 118.5,-82 217.5,-82 217.5,-118"/>
<text text-anchor="middle" x="168" y="-96.3" font-family="Hack" font-size="14.00">Resampling</text>
</g>
<!-- data&#45;&gt;resamp -->
<g id="edge1" class="edge"><title>data&#45;&gt;resamp</title>
<path fill="none" stroke="Gray" d="M74.277,-80.5929C84.8823,-82.8126 96.7557,-85.2977 108.373,-87.7292"/>
<polygon fill="Gray" stroke="Gray" points="107.973,-91.2212 118.478,-89.8442 109.407,-84.3697 107.973,-91.2212"/>
</g>
<!-- reproj -->
<g id="node3" class="node"><title>reproj</title>
<polygon fill="White" stroke="White" points="226,-64 110,-64 110,-28 226,-28 226,-64"/>
<text text-anchor="middle" x="168" y="-42.3" font-family="Hack" font-size="14.00">Reprojection</text>
</g>
<!-- data&#45;&gt;reproj -->
<g id="edge2" class="edge"><title>data&#45;&gt;reproj</title>
<path fill="none" stroke="Gray" d="M74.277,-65.4071C82.2904,-63.7299 91.0277,-61.9012 99.8315,-60.0585"/>
<polygon fill="Gray" stroke="Gray" points="100.694,-63.454 109.764,-57.9796 99.2594,-56.6025 100.694,-63.454"/>
</g>
<!-- ts -->
<g id="node4" class="node"><title>ts</title>
<polygon fill="#888888" stroke="#888888" points="439.5,-91 266.5,-91 266.5,-55 439.5,-55 439.5,-91"/>
<text text-anchor="middle" x="353" y="-69.3" font-family="Hack" font-size="14.00">Temporal resampling</text>
</g>
<!-- resamp&#45;&gt;ts -->
<g id="edge3" class="edge"><title>resamp&#45;&gt;ts</title>
<path fill="none" stroke="Gray" d="M217.56,-92.8354C229.542,-91.0676 242.794,-89.1123 256.17,-87.1388"/>
<polygon fill="Gray" stroke="Gray" points="257.022,-90.5511 266.404,-85.6289 256,-83.6261 257.022,-90.5511"/>
</g>
<!-- reproj&#45;&gt;ts -->
<g id="edge4" class="edge"><title>reproj&#45;&gt;ts</title>
<path fill="none" stroke="Gray" d="M226.15,-54.4319C235.845,-55.8624 246.143,-57.3818 256.509,-58.9112"/>
<polygon fill="Gray" stroke="Gray" points="256.048,-62.3809 266.451,-60.3781 257.069,-55.4559 256.048,-62.3809"/>
</g>
<!-- store -->
<g id="node5" class="node"><title>store</title>
<path fill="White" stroke="White" d="M274,-0C274,-0 432,-0 432,-0 438,-0 444,-6 444,-12 444,-12 444,-24 444,-24 444,-30 438,-36 432,-36 432,-36 274,-36 274,-36 268,-36 262,-30 262,-24 262,-24 262,-12 262,-12 262,-6 268,-0 274,-0"/>
<text text-anchor="middle" x="353" y="-14.3" font-family="Hack" font-size="14.00">Storage as DatasetTs</text>
</g>
<!-- ts&#45;&gt;store -->
<g id="edge5" class="edge"><title>ts&#45;&gt;store</title>
<path fill="none" stroke="Gray" d="M353,-54.8121C353,-51.9778 353,-49.1435 353,-46.3091"/>
<polygon fill="Gray" stroke="Gray" points="356.5,-46.0468 353,-36.0469 349.5,-46.0469 356.5,-46.0468"/>
</g>
</g>
</svg>
