<?xml version="1.0" encoding="UTF-8" standalone="no"?>
<!DOCTYPE svg PUBLIC "-//W3C//DTD SVG 1.1//EN"
 "http://www.w3.org/Graphics/SVG/1.1/DTD/svg11.dtd">
<!-- Generated by graphviz version 2.36.0 (20140111.2315)
 -->
<!-- Title: G Pages: 1 -->
<svg width="675pt" height="311pt"
 viewBox="0.00 0.00 675.00 311.11" xmlns="http://www.w3.org/2000/svg" xmlns:xlink="http://www.w3.org/1999/xlink">
<g id="graph0" class="graph" transform="scale(1.38889 1.38889) rotate(0) translate(4 220)">
<title>G</title>
<polygon fill="none" stroke="none" points="-4,4 -4,-220 482,-220 482,4 -4,4"/>
<!-- data -->
<g id="node1" class="node"><title>data</title>
<path fill="White" stroke="White" d="M11.5,-179C11.5,-179 78.5,-179 78.5,-179 84.5,-179 90.5,-185 90.5,-191 90.5,-191 90.5,-203 90.5,-203 90.5,-209 84.5,-215 78.5,-215 78.5,-215 11.5,-215 11.5,-215 5.5,-215 -0.5,-209 -0.5,-203 -0.5,-203 -0.5,-191 -0.5,-191 -0.5,-185 5.5,-179 11.5,-179"/>
<text text-anchor="middle" x="45" y="-193.3" font-family="Hack" font-size="14.00">DatasetTs</text>
</g>
<!-- spatial -->
<g id="node3" class="node"><title>spatial</title>
<polygon fill="White" stroke="White" points="200.25,-126 51.75,-126 51.75,-90 200.25,-90 200.25,-126"/>
<text text-anchor="middle" x="126" y="-104.3" font-family="Hack" font-size="14.00">Spatial matching</text>
</g>
<!-- data&#45;&gt;spatial -->
<g id="edge2" class="edge"><title>data&#45;&gt;spatial</title>
<path fill="none" stroke="Gray" d="M50.5218,-178.641C54.6171,-167.779 61.0471,-154.001 70,-144 73.9681,-139.567 78.6284,-135.494 83.5372,-131.816"/>
<polygon fill="Gray" stroke="Gray" points="85.7131,-134.567 91.9548,-126.006 81.7366,-128.806 85.7131,-134.567"/>
<text text-anchor="middle" x="111.5" y="-148.3" font-family="Hack" font-size="14.00" fill="#42affa">pygeogrids</text>
</g>
<!-- data1 -->
<g id="node2" class="node"><title>data1</title>
<path fill="White" stroke="White" d="M174.5,-179C174.5,-179 241.5,-179 241.5,-179 247.5,-179 253.5,-185 253.5,-191 253.5,-191 253.5,-203 253.5,-203 253.5,-209 247.5,-215 241.5,-215 241.5,-215 174.5,-215 174.5,-215 168.5,-215 162.5,-209 162.5,-203 162.5,-203 162.5,-191 162.5,-191 162.5,-185 168.5,-179 174.5,-179"/>
<text text-anchor="middle" x="208" y="-193.3" font-family="Hack" font-size="14.00">DatasetTs</text>
</g>
<!-- data1&#45;&gt;spatial -->
<g id="edge1" class="edge"><title>data1&#45;&gt;spatial</title>
<path fill="none" stroke="Gray" d="M195.865,-178.917C188.091,-168.421 177.52,-154.937 167,-144 163.363,-140.218 159.352,-136.415 155.307,-132.78"/>
<polygon fill="Gray" stroke="Gray" points="157.413,-129.973 147.572,-126.048 152.817,-135.253 157.413,-129.973"/>
</g>
<!-- dataprep -->
<g id="node4" class="node"><title>dataprep</title>
<polygon fill="White" stroke="White" points="221.25,-37 72.75,-37 72.75,-1 221.25,-1 221.25,-37"/>
<text text-anchor="middle" x="147" y="-15.3" font-family="Hack" font-size="14.00">Data preparation</text>
</g>
<!-- spatial&#45;&gt;dataprep -->
<g id="edge3" class="edge"><title>spatial&#45;&gt;dataprep</title>
<path fill="none" stroke="Gray" d="M116.259,-89.6512C111.929,-79.6183 108.679,-66.8683 113,-56 114.572,-52.0456 116.808,-48.2745 119.391,-44.7637"/>
<polygon fill="Gray" stroke="Gray" points="122.107,-46.9722 125.902,-37.0802 116.767,-42.4467 122.107,-46.9722"/>
<text text-anchor="middle" x="142" y="-60.3" font-family="Hack" font-size="14.00" fill="#42affa">pytesmo</text>
</g>
<!-- algo -->
<g id="node5" class="node"><title>algo</title>
<polygon fill="White" stroke="White" points="402.25,-126 311.75,-126 311.75,-90 402.25,-90 402.25,-126"/>
<text text-anchor="middle" x="357" y="-104.3" font-family="Hack" font-size="14.00">Algorithm</text>
</g>
<!-- dataprep&#45;&gt;algo -->
<g id="edge4" class="edge"><title>dataprep&#45;&gt;algo</title>
<path fill="none" stroke="Gray" d="M188.144,-37.0455C222,-51.0713 270.135,-71.013 306.355,-86.0186"/>
<polygon fill="Gray" stroke="Gray" points="305.183,-89.3214 315.761,-89.9154 307.862,-82.8544 305.183,-89.3214"/>
<text text-anchor="middle" x="299" y="-60.3" font-family="Hack" font-size="14.00" fill="#42affa">pytesmo</text>
</g>
<!-- store -->
<g id="node6" class="node"><title>store</title>
<path fill="White" stroke="White" d="M325.5,-1C325.5,-1 466.5,-1 466.5,-1 472.5,-1 478.5,-7 478.5,-13 478.5,-13 478.5,-25 478.5,-25 478.5,-31 472.5,-37 466.5,-37 466.5,-37 325.5,-37 325.5,-37 319.5,-37 313.5,-31 313.5,-25 313.5,-25 313.5,-13 313.5,-13 313.5,-7 319.5,-1 325.5,-1"/>
<text text-anchor="middle" x="396" y="-15.3" font-family="Hack" font-size="14.00">Storage of results</text>
</g>
<!-- algo&#45;&gt;store -->
<g id="edge5" class="edge"><title>algo&#45;&gt;store</title>
<path fill="none" stroke="Gray" d="M364.705,-89.8116C370.26,-77.4191 377.861,-60.4631 384.181,-46.3651"/>
<polygon fill="Gray" stroke="Gray" points="387.414,-47.7095 388.311,-37.1527 381.026,-44.8461 387.414,-47.7095"/>
<text text-anchor="middle" x="407" y="-60.3" font-family="Hack" font-size="14.00" fill="#42affa">pynetCF</text>
</g>
</g>
</svg>
