<?xml version="1.0" encoding="UTF-8" standalone="no"?>
<!DOCTYPE svg PUBLIC "-//W3C//DTD SVG 1.1//EN"
 "http://www.w3.org/Graphics/SVG/1.1/DTD/svg11.dtd">
<!-- Generated by graphviz version 2.36.0 (20140111.2315)
 -->
<!-- Title: G Pages: 1 -->
<svg width="506pt" height="267pt"
 viewBox="0.00 0.00 505.56 266.67" xmlns="http://www.w3.org/2000/svg" xmlns:xlink="http://www.w3.org/1999/xlink">
<g id="graph0" class="graph" transform="scale(1.38889 1.38889) rotate(0) translate(4 188)">
<title>G</title>
<polygon fill="none" stroke="none" points="-4,4 -4,-188 360,-188 360,4 -4,4"/>
<!-- data -->
<g id="node1" class="node"><title>data</title>
<path fill="White" stroke="White" d="M11.5,-147C11.5,-147 78.5,-147 78.5,-147 84.5,-147 90.5,-153 90.5,-159 90.5,-159 90.5,-171 90.5,-171 90.5,-177 84.5,-183 78.5,-183 78.5,-183 11.5,-183 11.5,-183 5.5,-183 -0.5,-177 -0.5,-171 -0.5,-171 -0.5,-159 -0.5,-159 -0.5,-153 5.5,-147 11.5,-147"/>
<text text-anchor="middle" x="45" y="-161.3" font-family="Hack" font-size="14.00">DatasetTs</text>
</g>
<!-- spatial -->
<g id="node3" class="node"><title>spatial</title>
<polygon fill="White" stroke="White" points="173.25,-110 24.75,-110 24.75,-74 173.25,-74 173.25,-110"/>
<text text-anchor="middle" x="99" y="-88.3" font-family="Hack" font-size="14.00">Spatial matching</text>
</g>
<!-- data&#45;&gt;spatial -->
<g id="edge2" class="edge"><title>data&#45;&gt;spatial</title>
<path fill="none" stroke="Gray" d="M58.0719,-146.813C64.6385,-138.179 72.7187,-127.555 79.96,-118.034"/>
<polygon fill="Gray" stroke="Gray" points="82.7806,-120.107 86.0485,-110.029 77.209,-115.87 82.7806,-120.107"/>
</g>
<!-- data1 -->
<g id="node2" class="node"><title>data1</title>
<path fill="White" stroke="White" d="M120.5,-147C120.5,-147 187.5,-147 187.5,-147 193.5,-147 199.5,-153 199.5,-159 199.5,-159 199.5,-171 199.5,-171 199.5,-177 193.5,-183 187.5,-183 187.5,-183 120.5,-183 120.5,-183 114.5,-183 108.5,-177 108.5,-171 108.5,-171 108.5,-159 108.5,-159 108.5,-153 114.5,-147 120.5,-147"/>
<text text-anchor="middle" x="154" y="-161.3" font-family="Hack" font-size="14.00">DatasetTs</text>
</g>
<!-- data1&#45;&gt;spatial -->
<g id="edge1" class="edge"><title>data1&#45;&gt;spatial</title>
<path fill="none" stroke="Gray" d="M140.686,-146.813C133.998,-138.179 125.768,-127.555 118.393,-118.034"/>
<polygon fill="Gray" stroke="Gray" points="121.082,-115.791 112.191,-110.029 115.548,-120.078 121.082,-115.791"/>
</g>
<!-- dataprep -->
<g id="node4" class="node"><title>dataprep</title>
<polygon fill="White" stroke="White" points="173.25,-37 24.75,-37 24.75,-1 173.25,-1 173.25,-37"/>
<text text-anchor="middle" x="99" y="-15.3" font-family="Hack" font-size="14.00">Data preparation</text>
</g>
<!-- spatial&#45;&gt;dataprep -->
<g id="edge3" class="edge"><title>spatial&#45;&gt;dataprep</title>
<path fill="none" stroke="Gray" d="M99,-73.8129C99,-65.7895 99,-56.0475 99,-47.0691"/>
<polygon fill="Gray" stroke="Gray" points="102.5,-47.0288 99,-37.0288 95.5001,-47.0289 102.5,-47.0288"/>
</g>
<!-- algo -->
<g id="node5" class="node"><title>algo</title>
<polygon fill="White" stroke="White" points="300.25,-110 209.75,-110 209.75,-74 300.25,-74 300.25,-110"/>
<text text-anchor="middle" x="255" y="-88.3" font-family="Hack" font-size="14.00">Algorithm</text>
</g>
<!-- dataprep&#45;&gt;algo -->
<g id="edge4" class="edge"><title>dataprep&#45;&gt;algo</title>
<path fill="none" stroke="Gray" d="M136.602,-37.1136C158.192,-46.9401 185.487,-59.3626 208.427,-69.8031"/>
<polygon fill="Gray" stroke="Gray" points="207.083,-73.0368 217.634,-73.9937 209.982,-66.6657 207.083,-73.0368"/>
</g>
<!-- store -->
<g id="node6" class="node"><title>store</title>
<path fill="White" stroke="White" d="M203.5,-1C203.5,-1 344.5,-1 344.5,-1 350.5,-1 356.5,-7 356.5,-13 356.5,-13 356.5,-25 356.5,-25 356.5,-31 350.5,-37 344.5,-37 344.5,-37 203.5,-37 203.5,-37 197.5,-37 191.5,-31 191.5,-25 191.5,-25 191.5,-13 191.5,-13 191.5,-7 197.5,-1 203.5,-1"/>
<text text-anchor="middle" x="274" y="-15.3" font-family="Hack" font-size="14.00">Storage of results</text>
</g>
<!-- algo&#45;&gt;store -->
<g id="edge5" class="edge"><title>algo&#45;&gt;store</title>
<path fill="none" stroke="Gray" d="M259.599,-73.8129C261.77,-65.7023 264.41,-55.8355 266.834,-46.7766"/>
<polygon fill="Gray" stroke="Gray" points="270.239,-47.5937 269.443,-37.0288 263.477,-45.7841 270.239,-47.5937"/>
</g>
</g>
</svg>
