<?xml version="1.0" encoding="UTF-8" standalone="no"?>
<!DOCTYPE svg PUBLIC "-//W3C//DTD SVG 1.1//EN"
 "http://www.w3.org/Graphics/SVG/1.1/DTD/svg11.dtd">
<!-- Generated by graphviz version 2.36.0 (20140111.2315)
 -->
<!-- Title: G Pages: 1 -->
<svg width="678pt" height="253pt"
 viewBox="0.00 0.00 677.78 252.78" xmlns="http://www.w3.org/2000/svg" xmlns:xlink="http://www.w3.org/1999/xlink">
<g id="graph0" class="graph" transform="scale(1.38889 1.38889) rotate(0) translate(4 178)">
<title>G</title>
<polygon fill="none" stroke="none" points="-4,4 -4,-178 484,-178 484,4 -4,4"/>
<!-- data -->
<g id="node1" class="node"><title>data</title>
<path fill="White" stroke="White" d="M12.5,-138C12.5,-138 79.5,-138 79.5,-138 85.5,-138 91.5,-144 91.5,-150 91.5,-150 91.5,-162 91.5,-162 91.5,-168 85.5,-174 79.5,-174 79.5,-174 12.5,-174 12.5,-174 6.5,-174 0.5,-168 0.5,-162 0.5,-162 0.5,-150 0.5,-150 0.5,-144 6.5,-138 12.5,-138"/>
<text text-anchor="middle" x="46" y="-152.3" font-family="Hack" font-size="14.00">DatasetTs</text>
</g>
<!-- spatial -->
<g id="node3" class="node"><title>spatial</title>
<polygon fill="White" stroke="White" points="293.5,-129 128.5,-129 128.5,-93 293.5,-93 293.5,-129"/>
<text text-anchor="middle" x="211" y="-107.3" font-family="Hack" font-size="14.00">Spatial resampling</text>
</g>
<!-- data&#45;&gt;spatial -->
<g id="edge1" class="edge"><title>data&#45;&gt;spatial</title>
<path fill="none" stroke="Gray" d="M91.5405,-143.704C104.995,-139.989 120.154,-135.804 135.021,-131.7"/>
<polygon fill="Gray" stroke="Gray" points="136.021,-135.055 144.729,-129.02 134.158,-128.307 136.021,-135.055"/>
</g>
<!-- data1 -->
<g id="node2" class="node"><title>data1</title>
<path fill="White" stroke="White" d="M12.5,-83C12.5,-83 79.5,-83 79.5,-83 85.5,-83 91.5,-89 91.5,-95 91.5,-95 91.5,-107 91.5,-107 91.5,-113 85.5,-119 79.5,-119 79.5,-119 12.5,-119 12.5,-119 6.5,-119 0.5,-113 0.5,-107 0.5,-107 0.5,-95 0.5,-95 0.5,-89 6.5,-83 12.5,-83"/>
<text text-anchor="middle" x="46" y="-97.3" font-family="Hack" font-size="14.00">DatasetTs</text>
</g>
<!-- data1&#45;&gt;spatial -->
<g id="edge2" class="edge"><title>data1&#45;&gt;spatial</title>
<path fill="none" stroke="Gray" d="M91.5405,-103.733C99.9164,-104.246 108.953,-104.801 118.169,-105.366"/>
<polygon fill="Gray" stroke="Gray" points="118.021,-108.864 128.216,-105.983 118.45,-101.877 118.021,-108.864"/>
</g>
<!-- dataprep -->
<g id="node4" class="node"><title>dataprep</title>
<polygon fill="White" stroke="White" points="479.5,-106 330.5,-106 330.5,-70 479.5,-70 479.5,-106"/>
<text text-anchor="middle" x="405" y="-84.3" font-family="Hack" font-size="14.00">Data preparation</text>
</g>
<!-- spatial&#45;&gt;dataprep -->
<g id="edge3" class="edge"><title>spatial&#45;&gt;dataprep</title>
<path fill="none" stroke="Gray" d="M293.704,-101.213C302.433,-100.167 311.325,-99.1017 320.08,-98.053"/>
<polygon fill="Gray" stroke="Gray" points="320.764,-101.496 330.277,-96.8314 319.931,-94.5458 320.764,-101.496"/>
</g>
<!-- algo -->
<g id="node5" class="node"><title>algo</title>
<polygon fill="White" stroke="White" points="91.5,-45 0.5,-45 0.5,-9 91.5,-9 91.5,-45"/>
<text text-anchor="middle" x="46" y="-23.3" font-family="Hack" font-size="14.00">Algorithm</text>
</g>
<!-- dataprep&#45;&gt;algo -->
<g id="edge4" class="edge"><title>dataprep&#45;&gt;algo</title>
<path fill="none" stroke="Gray" d="M330.27,-77.8244C274.551,-69.8171 196.263,-57.8886 128,-45 119.464,-43.3883 110.454,-41.537 101.668,-39.6486"/>
<polygon fill="Gray" stroke="Gray" points="102.397,-36.2254 91.8809,-37.5114 100.904,-43.0642 102.397,-36.2254"/>
</g>
<!-- store -->
<g id="node6" class="node"><title>store</title>
<path fill="White" stroke="White" d="M140.5,-0C140.5,-0 281.5,-0 281.5,-0 287.5,-0 293.5,-6 293.5,-12 293.5,-12 293.5,-24 293.5,-24 293.5,-30 287.5,-36 281.5,-36 281.5,-36 140.5,-36 140.5,-36 134.5,-36 128.5,-30 128.5,-24 128.5,-24 128.5,-12 128.5,-12 128.5,-6 134.5,-0 140.5,-0"/>
<text text-anchor="middle" x="211" y="-14.3" font-family="Hack" font-size="14.00">Storage of results</text>
</g>
<!-- algo&#45;&gt;store -->
<g id="edge5" class="edge"><title>algo&#45;&gt;store</title>
<path fill="none" stroke="Gray" d="M91.5405,-24.5407C99.9164,-24.0782 108.953,-23.5793 118.169,-23.0704"/>
<polygon fill="Gray" stroke="Gray" points="118.425,-26.5617 128.216,-22.5157 118.039,-19.5724 118.425,-26.5617"/>
</g>
</g>
</svg>
