<?xml version="1.0" encoding="UTF-8" standalone="no"?>
<!DOCTYPE svg PUBLIC "-//W3C//DTD SVG 1.1//EN"
 "http://www.w3.org/Graphics/SVG/1.1/DTD/svg11.dtd">
<!-- Generated by graphviz version 2.36.0 (20140111.2315)
 -->
<!-- Title: G Pages: 1 -->
<svg width="875pt" height="272pt"
 viewBox="0.00 0.00 875.00 272.22" xmlns="http://www.w3.org/2000/svg" xmlns:xlink="http://www.w3.org/1999/xlink">
<g id="graph0" class="graph" transform="scale(1.38889 1.38889) rotate(0) translate(4 192)">
<title>G</title>
<polygon fill="none" stroke="none" points="-4,4 -4,-192 626,-192 626,4 -4,4"/>
<!-- data -->
<g id="node1" class="node"><title>data</title>
<path fill="White" stroke="White" d="M12.5,-152C12.5,-152 79.5,-152 79.5,-152 85.5,-152 91.5,-158 91.5,-164 91.5,-164 91.5,-176 91.5,-176 91.5,-182 85.5,-188 79.5,-188 79.5,-188 12.5,-188 12.5,-188 6.5,-188 0.5,-182 0.5,-176 0.5,-176 0.5,-164 0.5,-164 0.5,-158 6.5,-152 12.5,-152"/>
<text text-anchor="middle" x="46" y="-166.3" font-family="Hack" font-size="14.00">DatasetTs</text>
</g>
<!-- spatial -->
<g id="node3" class="node"><title>spatial</title>
<polygon fill="White" stroke="White" points="369.5,-142 220.5,-142 220.5,-106 369.5,-106 369.5,-142"/>
<text text-anchor="middle" x="295" y="-120.3" font-family="Hack" font-size="14.00">Spatial matching</text>
</g>
<!-- data&#45;&gt;spatial -->
<g id="edge1" class="edge"><title>data&#45;&gt;spatial</title>
<path fill="none" stroke="Gray" d="M91.7298,-161.67C124.667,-155.536 170.433,-147.012 210.102,-139.625"/>
<polygon fill="Gray" stroke="Gray" points="210.855,-143.045 220.045,-137.773 209.573,-136.163 210.855,-143.045"/>
<text text-anchor="middle" x="152" y="-161.8" font-family="Hack" font-size="14.00" fill="#42affa">pygeogrids</text>
</g>
<!-- data1 -->
<g id="node2" class="node"><title>data1</title>
<path fill="White" stroke="White" d="M12.5,-97C12.5,-97 79.5,-97 79.5,-97 85.5,-97 91.5,-103 91.5,-109 91.5,-109 91.5,-121 91.5,-121 91.5,-127 85.5,-133 79.5,-133 79.5,-133 12.5,-133 12.5,-133 6.5,-133 0.5,-127 0.5,-121 0.5,-121 0.5,-109 0.5,-109 0.5,-103 6.5,-97 12.5,-97"/>
<text text-anchor="middle" x="46" y="-111.3" font-family="Hack" font-size="14.00">DatasetTs</text>
</g>
<!-- data1&#45;&gt;spatial -->
<g id="edge2" class="edge"><title>data1&#45;&gt;spatial</title>
<path fill="none" stroke="Gray" d="M91.7298,-116.63C124.597,-117.827 170.239,-119.49 209.85,-120.934"/>
<polygon fill="Gray" stroke="Gray" points="209.924,-124.439 220.045,-121.305 210.179,-117.443 209.924,-124.439"/>
<text text-anchor="middle" x="152" y="-124.8" font-family="Hack" font-size="14.00" fill="#42affa">pygeogrids</text>
</g>
<!-- dataprep -->
<g id="node4" class="node"><title>dataprep</title>
<polygon fill="White" stroke="White" points="621.5,-112 472.5,-112 472.5,-76 621.5,-76 621.5,-112"/>
<text text-anchor="middle" x="547" y="-90.3" font-family="Hack" font-size="14.00">Data preparation</text>
</g>
<!-- spatial&#45;&gt;dataprep -->
<g id="edge3" class="edge"><title>spatial&#45;&gt;dataprep</title>
<path fill="none" stroke="Gray" d="M369.656,-115.161C398.772,-111.667 432.386,-107.634 462.407,-104.031"/>
<polygon fill="Gray" stroke="Gray" points="462.927,-107.494 472.439,-102.827 462.093,-100.544 462.927,-107.494"/>
<text text-anchor="middle" x="425" y="-115.8" font-family="Hack" font-size="14.00" fill="#42affa">pytesmo</text>
</g>
<!-- algo -->
<g id="node5" class="node"><title>algo</title>
<polygon fill="White" stroke="White" points="91.5,-52 0.5,-52 0.5,-16 91.5,-16 91.5,-52"/>
<text text-anchor="middle" x="46" y="-30.3" font-family="Hack" font-size="14.00">Algorithm</text>
</g>
<!-- dataprep&#45;&gt;algo -->
<g id="edge4" class="edge"><title>dataprep&#45;&gt;algo</title>
<path fill="none" stroke="Gray" d="M472.316,-89.3497C385.303,-83.1773 236.411,-70.4775 110,-49 107.194,-48.5233 104.327,-47.9942 101.439,-47.4278"/>
<polygon fill="Gray" stroke="Gray" points="102.096,-43.9896 91.5929,-45.3798 100.671,-50.8429 102.096,-43.9896"/>
<text text-anchor="middle" x="295" y="-85.8" font-family="Hack" font-size="14.00" fill="#42affa">pytesmo</text>
</g>
<!-- store -->
<g id="node6" class="node"><title>store</title>
<path fill="White" stroke="White" d="M224.5,-0C224.5,-0 365.5,-0 365.5,-0 371.5,-0 377.5,-6 377.5,-12 377.5,-12 377.5,-24 377.5,-24 377.5,-30 371.5,-36 365.5,-36 365.5,-36 224.5,-36 224.5,-36 218.5,-36 212.5,-30 212.5,-24 212.5,-24 212.5,-12 212.5,-12 212.5,-6 218.5,-0 224.5,-0"/>
<text text-anchor="middle" x="295" y="-14.3" font-family="Hack" font-size="14.00">Storage of results</text>
</g>
<!-- algo&#45;&gt;store -->
<g id="edge5" class="edge"><title>algo&#45;&gt;store</title>
<path fill="none" stroke="Gray" d="M91.7298,-31.1025C122.485,-29.1103 164.427,-26.3934 202.146,-23.9501"/>
<polygon fill="Gray" stroke="Gray" points="202.392,-27.4415 212.145,-23.3023 201.94,-20.4562 202.392,-27.4415"/>
<text text-anchor="middle" x="152" y="-33.8" font-family="Hack" font-size="14.00" fill="#42affa">pynetCF</text>
</g>
</g>
</svg>
