<?xml version="1.0" encoding="UTF-8" standalone="no"?>
<!DOCTYPE svg PUBLIC "-//W3C//DTD SVG 1.1//EN"
 "http://www.w3.org/Graphics/SVG/1.1/DTD/svg11.dtd">
<!-- Generated by graphviz version 2.36.0 (20140111.2315)
 -->
<!-- Title: G Pages: 1 -->
<svg width="710pt" height="311pt"
 viewBox="0.00 0.00 709.72 311.11" xmlns="http://www.w3.org/2000/svg" xmlns:xlink="http://www.w3.org/1999/xlink">
<g id="graph0" class="graph" transform="scale(1.38889 1.38889) rotate(0) translate(4 220)">
<title>G</title>
<polygon fill="none" stroke="none" points="-4,4 -4,-220 507,-220 507,4 -4,4"/>
<!-- data -->
<g id="node1" class="node"><title>data</title>
<path fill="White" stroke="White" d="M11.5,-179C11.5,-179 78.5,-179 78.5,-179 84.5,-179 90.5,-185 90.5,-191 90.5,-191 90.5,-203 90.5,-203 90.5,-209 84.5,-215 78.5,-215 78.5,-215 11.5,-215 11.5,-215 5.5,-215 -0.5,-209 -0.5,-203 -0.5,-203 -0.5,-191 -0.5,-191 -0.5,-185 5.5,-179 11.5,-179"/>
<text text-anchor="middle" x="45" y="-193.3" font-family="Hack" font-size="14.00">DatasetTs</text>
</g>
<!-- spatial -->
<g id="node3" class="node"><title>spatial</title>
<polygon fill="White" stroke="White" points="200.25,-126 51.75,-126 51.75,-90 200.25,-90 200.25,-126"/>
<text text-anchor="middle" x="126" y="-104.3" font-family="Hack" font-size="14.00">Spatial matching</text>
</g>
<!-- data&#45;&gt;spatial -->
<g id="edge2" class="edge"><title>data&#45;&gt;spatial</title>
<path fill="none" stroke="Gray" d="M61.003,-178.812C72.9846,-165.942 89.5481,-148.152 102.956,-133.751"/>
<polygon fill="Gray" stroke="Gray" points="105.778,-135.857 110.03,-126.153 100.654,-131.087 105.778,-135.857"/>
<text text-anchor="middle" x="122" y="-148.3" font-family="Hack" font-size="14.00" fill="#42affa">pynetCF</text>
</g>
<!-- data1 -->
<g id="node2" class="node"><title>data1</title>
<path fill="White" stroke="White" d="M174.5,-179C174.5,-179 241.5,-179 241.5,-179 247.5,-179 253.5,-185 253.5,-191 253.5,-191 253.5,-203 253.5,-203 253.5,-209 247.5,-215 241.5,-215 241.5,-215 174.5,-215 174.5,-215 168.5,-215 162.5,-209 162.5,-203 162.5,-203 162.5,-191 162.5,-191 162.5,-185 168.5,-179 174.5,-179"/>
<text text-anchor="middle" x="208" y="-193.3" font-family="Hack" font-size="14.00">DatasetTs</text>
</g>
<!-- data1&#45;&gt;spatial -->
<g id="edge1" class="edge"><title>data1&#45;&gt;spatial</title>
<path fill="none" stroke="Gray" d="M195.865,-178.917C188.091,-168.421 177.52,-154.937 167,-144 163.363,-140.218 159.352,-136.415 155.307,-132.78"/>
<polygon fill="Gray" stroke="Gray" points="157.413,-129.973 147.572,-126.048 152.817,-135.253 157.413,-129.973"/>
</g>
<!-- dataprep -->
<g id="node4" class="node"><title>dataprep</title>
<polygon fill="White" stroke="White" points="233.25,-37 84.75,-37 84.75,-1 233.25,-1 233.25,-37"/>
<text text-anchor="middle" x="159" y="-15.3" font-family="Hack" font-size="14.00">Data preparation</text>
</g>
<!-- spatial&#45;&gt;dataprep -->
<g id="edge3" class="edge"><title>spatial&#45;&gt;dataprep</title>
<path fill="none" stroke="Gray" d="M115.871,-89.8581C111.231,-79.6631 107.797,-66.6784 113,-56 115.11,-51.6697 118.02,-47.7069 121.362,-44.1243"/>
<polygon fill="Gray" stroke="Gray" points="123.757,-46.6762 128.708,-37.3088 118.996,-41.5447 123.757,-46.6762"/>
<text text-anchor="middle" x="154.5" y="-60.3" font-family="Hack" font-size="14.00" fill="#42affa">pygeogrids</text>
</g>
<!-- algo -->
<g id="node5" class="node"><title>algo</title>
<polygon fill="White" stroke="White" points="414.25,-126 323.75,-126 323.75,-90 414.25,-90 414.25,-126"/>
<text text-anchor="middle" x="369" y="-104.3" font-family="Hack" font-size="14.00">Algorithm</text>
</g>
<!-- dataprep&#45;&gt;algo -->
<g id="edge4" class="edge"><title>dataprep&#45;&gt;algo</title>
<path fill="none" stroke="Gray" d="M200.144,-37.0455C234,-51.0713 282.135,-71.013 318.355,-86.0186"/>
<polygon fill="Gray" stroke="Gray" points="317.183,-89.3214 327.761,-89.9154 319.862,-82.8544 317.183,-89.3214"/>
<text text-anchor="middle" x="311" y="-60.3" font-family="Hack" font-size="14.00" fill="#42affa">pytesmo</text>
</g>
<!-- store -->
<g id="node6" class="node"><title>store</title>
<path fill="White" stroke="White" d="M350.5,-1C350.5,-1 491.5,-1 491.5,-1 497.5,-1 503.5,-7 503.5,-13 503.5,-13 503.5,-25 503.5,-25 503.5,-31 497.5,-37 491.5,-37 491.5,-37 350.5,-37 350.5,-37 344.5,-37 338.5,-31 338.5,-25 338.5,-25 338.5,-13 338.5,-13 338.5,-7 344.5,-1 350.5,-1"/>
<text text-anchor="middle" x="421" y="-15.3" font-family="Hack" font-size="14.00">Storage of results</text>
</g>
<!-- algo&#45;&gt;store -->
<g id="edge5" class="edge"><title>algo&#45;&gt;store</title>
<path fill="none" stroke="Gray" d="M379.274,-89.8116C386.752,-77.3 397.01,-60.1366 405.484,-45.9592"/>
<polygon fill="Gray" stroke="Gray" points="408.622,-47.532 410.748,-37.1527 402.613,-43.9407 408.622,-47.532"/>
<text text-anchor="middle" x="427" y="-60.3" font-family="Hack" font-size="14.00" fill="#42affa">pynetCF</text>
</g>
</g>
</svg>
